<svg width="458" height="556" viewBox="0 0 458 556" fill="none" xmlns="http://www.w3.org/2000/svg">
<path d="M185.988 547.262C209.196 555.917 234.271 557.536 261.352 551.66" stroke="#0D114F" stroke-width="1.60556" stroke-miterlimit="1.5" stroke-linecap="round" stroke-linejoin="round"/>
<path fill-rule="evenodd" clip-rule="evenodd" d="M249.962 345.696L249.173 359.605L253.335 357.314L254.193 346.18C254.193 346.18 249.861 344.599 249.962 345.696Z" fill="white"/>
<path fill-rule="evenodd" clip-rule="evenodd" d="M249.55 374.966L249.962 391.779C249.962 391.779 251.738 392.456 252.665 392.489C253.592 392.521 253.919 392.489 253.919 392.489V374.966C252.586 374.417 251.169 374.256 249.55 374.966Z" fill="white"/>
<path fill-rule="evenodd" clip-rule="evenodd" d="M117.725 2.52905C123.289 109.926 157.082 175.178 193.198 221.712H197.964C164.061 175.855 131.471 111.863 131.006 2.52905H117.725Z" fill="white"/>
<path fill-rule="evenodd" clip-rule="evenodd" d="M25.248 1.33423C35.8198 92.6284 80.7506 164.56 160.94 216.71L173.897 219.55C99.8885 165.948 51.94 95.9846 38.7056 1.33423H25.248Z" fill="white"/>
<path fill-rule="evenodd" clip-rule="evenodd" d="M161.263 238.913L160.471 238.557C160.471 238.557 158.695 237.041 158.647 232.2C158.6 227.392 159.465 219.26 159.902 217.356C160.339 215.484 161.263 216.613 161.263 216.613L163.734 217.356H163.664C161.363 223.616 160.697 230.877 161.263 238.913Z" fill="white"/>
<path fill-rule="evenodd" clip-rule="evenodd" d="M236.592 368.705L236.712 366.447C236.712 366.447 241.182 364.059 242.593 361.896C244.002 359.767 247.592 355.055 248.918 354.958V358.379C248.918 358.379 247.491 359.282 246.689 361.186C245.891 363.09 241.993 368.673 236.592 368.705Z" fill="white"/>
<path fill-rule="evenodd" clip-rule="evenodd" d="M145.47 371.19C145.47 371.19 149.874 371.448 151.056 372.578C152.238 373.707 153.47 376.031 157.667 376.773C161.866 377.547 162.58 379.677 163.834 380.871C165.089 382.065 171.64 389.326 171.64 389.326L172.834 387.035C172.834 387.035 164.843 377.805 163.316 376.773C161.791 375.772 155.4 373.998 153.08 371.707C150.757 369.383 146.303 370.157 145.47 371.19Z" fill="white"/>
<path fill-rule="evenodd" clip-rule="evenodd" d="M171.779 389.166L169.188 392.845L170.088 394.07L189.483 404.301L190.125 399.524C184.23 397.039 178.129 393.651 171.779 389.166Z" fill="white"/>
<path fill-rule="evenodd" clip-rule="evenodd" d="M141.875 352.731L129.828 372.772L129.171 374.966L130.237 373.966C130.237 373.966 132.547 373.191 133.733 373.675L144.462 353.313L141.875 352.731Z" fill="white"/>
<path fill-rule="evenodd" clip-rule="evenodd" d="M142.934 377.903L144.461 371.739L145.599 371.19H147.633L146.549 377.903C146.549 377.903 143.15 377.58 142.934 377.903Z" fill="white"/>
<path fill-rule="evenodd" clip-rule="evenodd" d="M87.0505 358.669C87.0505 358.669 97.352 355.603 100.219 354.57C103.086 353.506 114.73 350.989 117.883 347.116C121.035 343.211 134.757 336.499 138.278 334.95L139.152 331.4L136.914 332.142C136.914 332.142 129.341 334.918 126.358 337.177C123.374 339.436 112.979 345.309 112.979 345.309L109.741 348.084C109.741 348.084 99.9486 351.957 98.0687 352.441C96.1889 352.957 87.5441 355.022 87.5441 355.022L85.1235 355.733V356.991L87.0505 358.669Z" fill="white"/>
<path fill-rule="evenodd" clip-rule="evenodd" d="M46.8414 373.127C46.8414 373.127 56.6965 367.189 58.0325 366.415C59.3685 365.608 65.1054 364.059 66.7275 364.22C68.3464 364.381 70.4747 364.414 74.1903 363.22C77.906 361.994 87.3178 358.799 87.3178 358.799L85.3467 356.927L71.974 361.542C71.974 361.542 70.3834 362.026 66.7275 361.542C63.0684 361.09 53.556 367.318 53.556 367.318L46.8414 371.804C46.8414 371.804 46.1435 372.901 46.8414 373.127Z" fill="white"/>
<path fill-rule="evenodd" clip-rule="evenodd" d="M120.356 384.712C120.356 384.712 119.23 387.003 119.186 389.068C119.142 391.102 118.542 404.559 121.032 407.592L123.468 409.303C123.468 409.303 120.739 394.845 123.468 386.519L120.356 384.712Z" fill="white"/>
<path fill-rule="evenodd" clip-rule="evenodd" d="M125.239 456.353C128.735 483.719 132.469 506.824 136.43 525.929L148.568 534.093C148.568 534.093 142.711 527.187 141.705 521.217C139.357 507.244 133.164 450.512 133.164 450.512C133.164 450.512 130.8 453.997 125.239 456.353Z" fill="white"/>
<path fill-rule="evenodd" clip-rule="evenodd" d="M300.961 414.143C300.609 414.466 300.288 414.821 300.034 415.208C298.393 417.79 301.596 420.629 302.564 422.792C302.599 422.856 302.42 423.211 302.391 423.308C302.228 423.792 302.077 424.276 301.932 424.793C301.426 426.535 301.162 428.342 300.901 430.15C300.618 432.086 298.908 436.571 298.572 438.475C297.346 445.478 294.947 453.417 301.932 458.419C302.967 459.129 304.988 459.709 306.343 459.709C306.497 459.709 306.157 459.452 306.066 459.322C305.856 459.032 305.645 458.709 305.447 458.419C304.881 457.515 300.118 453.675 300.785 448.318C301.197 445.026 301.898 439.895 302.555 436.636C303.413 432.408 305.315 427.6 305.17 423.211C305.111 421.372 303.756 420.759 302.555 419.661C301.322 418.5 300.386 416.531 300.785 414.789" fill="white"/>
<path fill-rule="evenodd" clip-rule="evenodd" d="M262.846 421.565C262.557 424.276 264.006 425.954 265.647 427.922C266.16 428.503 267.741 429.858 267.735 430.73C267.731 431.278 267.272 432.085 267.09 432.602C266.581 434.021 266.037 435.474 265.559 436.926C263.441 443.348 259.986 449.737 259.225 456.546C258.974 458.805 258.694 461.161 258.772 463.452C258.807 464.55 258.841 465.679 259.709 466.454C260.944 467.551 262.551 468.067 264.091 468.519C264.61 468.681 265.132 468.809 265.666 468.906C265.833 468.938 265.999 468.971 266.169 469.003C266.263 469.003 266.499 469.132 266.449 469.035C266.292 468.777 265.22 468.455 264.905 468.229C263.921 467.519 262.343 465.873 262.013 464.679C261.039 461.226 262.123 457.547 262.934 454.159C263.714 450.932 264.528 447.639 265.531 444.445C266.477 441.476 267.552 438.54 268.269 435.474C268.712 433.57 269.508 431.504 269.57 429.536C269.636 427.438 268.542 427.729 267.134 426.793C265.402 425.631 263.896 423.21 263.962 421.048" fill="white"/>
<path fill-rule="evenodd" clip-rule="evenodd" d="M169.208 415.789C168.667 416.273 168.19 416.822 167.79 417.435C165.775 420.436 168.221 423.243 169.268 426.051C169.78 427.438 169.827 428.955 169.384 430.343C168.271 433.861 166.348 437.088 164.678 440.315C163.578 442.477 162.754 444.736 161.695 446.865C160.337 449.609 159.089 451.029 159.032 454.223C158.951 458.548 160.853 461.484 164.857 463.776C165.646 464.227 166.599 464.227 167.485 464.389C167.57 464.421 168.255 464.615 168.306 464.55C168.384 464.453 168.108 464.453 168.01 464.389C167.762 464.227 167.514 464.066 167.275 463.905C166.583 463.421 165.92 462.872 165.401 462.194C163.905 460.29 163.688 457.805 163.914 455.417C164.276 451.674 165.694 448.06 167.105 444.607C168.551 441.057 169.997 437.475 171.217 433.829C171.915 431.763 172.719 429.601 172.977 427.374C173.075 426.535 173.125 425.6 172.751 424.793C171.512 422.179 167.545 419.629 169.463 416.208" fill="white"/>
<path fill-rule="evenodd" clip-rule="evenodd" d="M119.024 400.944C117.283 404.01 118.71 406.01 119.637 409.044C120.279 411.142 120.477 413.272 120.178 415.434C119.776 418.338 118.801 421.21 117.997 424.018C116.698 428.568 115.39 433.118 114.24 437.668C113.108 442.186 112.228 447.285 113.778 451.771C114.366 453.481 115.29 455.062 116.56 456.353C117.016 456.805 117.874 457.192 118.245 457.676C118.377 457.837 117.827 457.741 117.616 457.741C117.214 457.773 116.808 457.773 116.403 457.773C115.18 457.805 113.941 457.611 112.8 457.16C109.317 455.74 107.497 452.254 107.877 448.479C108.063 446.639 108.789 444.897 109.185 443.122C109.76 440.508 110.081 437.829 110.813 435.248C111.697 432.117 113.143 429.117 114.281 426.083C115.639 422.437 117.368 418.79 118.063 414.95C118.468 412.691 118.65 410.754 117.248 408.85C116.484 407.818 112.992 405.365 113.206 403.978C113.407 402.655 116.654 402.493 117.566 401.783" fill="white"/>
<path fill-rule="evenodd" clip-rule="evenodd" d="M214.45 2.52905C204.547 90.6284 210.423 169.788 218.643 224.455L222.227 225.101C216.543 163.044 212.441 93.8878 223.55 2.52905H214.45Z" fill="white"/>
<path fill-rule="evenodd" clip-rule="evenodd" d="M262.401 328.589C262.401 328.589 262.675 322.889 263.71 322.396C264.745 321.904 275.172 322.01 275.172 322.01L285.173 322.396C285.173 322.396 286.102 325.669 286.184 328.589C286.27 331.509 286.184 328.413 286.184 328.413C286.184 328.413 301.982 332.389 304.916 334.36C307.846 336.365 310.677 344.071 310.677 344.071C310.677 344.071 302.763 342.628 299.415 343.754C296.066 344.845 292.128 345.865 290.836 346.006C289.543 346.147 274.298 346.569 274.298 346.569L261.76 345.513L261.126 354.662C261.126 354.662 257.726 356.456 256.002 359.799C254.278 363.141 251.299 365.288 251.299 365.288L248.19 366.625C248.19 366.625 248.543 375.316 249.798 379.292L253.417 378.131C253.417 378.131 257.589 376.864 258.329 376.125C259.073 375.386 261.479 375.034 261.479 375.034V378.694L261.76 391.994C261.76 391.994 269.989 394 275.998 393.12C282.01 392.24 294.558 390.762 294.558 390.762L306.606 389.039L308.381 388.827L309.629 401.248C309.629 401.248 295.141 406.139 288.44 407.335L271.967 410.22C271.967 410.22 252.266 411.698 248.19 411.663C244.115 411.628 242.799 411.663 242.799 411.663L242.22 390.023C242.22 390.023 231.056 400.544 224.708 396.252C218.361 391.924 222.456 376.864 225.935 368.243C229.411 359.658 236.002 343.93 237.99 340.13C239.975 336.295 243.238 335.204 246.634 333.937C250.034 332.67 262.401 328.589 262.401 328.589Z" fill="#FF3B1B"/>
<path fill-rule="evenodd" clip-rule="evenodd" d="M150.372 331.545C150.399 331.474 156.493 329.715 157.792 329.609C157.792 329.609 156.579 339.848 157.792 349.349L179.067 351.566C179.067 351.566 180.973 337.948 186.765 332.072C189.38 332.811 191.577 333.761 193.469 334.852C193.469 334.852 185.679 347.061 187.67 364.689C188.866 375.245 189.74 378.201 189.74 378.201L187.886 377.11L187.523 378.201L179.609 372.254C179.609 372.254 175.53 368.665 174.968 367.328C174.402 365.956 171.317 362.086 170.587 361.523C169.857 360.995 166.173 358.743 166.173 358.743V355.048C166.173 355.048 164.37 352.973 161.936 354.099L160.761 357.511L157.337 357.863L157.792 355.576C157.792 355.576 157.621 353.36 153.83 352.621L149.155 360.256C149.155 360.256 148.36 344.106 150.372 331.545Z" fill="#FF3B1B"/>
<path fill-rule="evenodd" clip-rule="evenodd" d="M150.878 393.824L149.583 378.729C149.583 378.729 150.484 377.568 150.6 376.583C150.72 375.563 152.989 369.475 152.989 369.475L153.641 368.032L156.791 369.123C156.791 369.123 156.191 371.41 156.276 372.044C156.362 372.712 154.419 378.483 154.419 378.483C154.419 378.483 154.083 379.503 154.419 380.172C154.755 380.84 157.003 382.846 159.748 382.881C162.497 382.952 163.145 380.805 163.145 380.805L164.105 374.613C164.105 374.613 166.895 376.829 170.35 377.463C173.808 378.096 174.672 379.82 175.981 381.333C177.291 382.846 182.068 388.229 182.068 388.229L183.073 389.637C183.073 389.637 182.065 391.466 180.831 392.803L181.311 393.824C181.311 393.824 187.045 397.307 189.431 398.644C191.816 400.016 201.434 404.521 201.434 404.521L201.16 407.722L178.021 402.902C178.021 402.902 166.189 399.348 162.089 398.151C157.987 396.99 150.878 393.824 150.878 393.824Z" fill="#FF3B1B"/>
<path fill-rule="evenodd" clip-rule="evenodd" d="M156.661 359.412L155.958 361.629L158.443 362.65C158.443 362.65 160.932 360.925 161.028 361.031C161.124 361.171 161.117 360.398 161.117 360.398L160.267 359.94L158.025 360.046L156.661 359.412Z" fill="#FF3B1B"/>
<path d="M258.817 278.969C259.619 279.215 260.442 279.602 261.161 280.025C261.261 280.095 261.823 280.552 261.874 280.552C261.892 280.517 261.823 280.13 261.816 280.095C261.754 279.637 261.699 279.18 261.672 278.723C261.597 277.491 261.652 276.189 261.981 274.993" stroke="#0D114F" stroke-width="1.60556" stroke-miterlimit="1.5" stroke-linecap="round" stroke-linejoin="round"/>
<path d="M260.904 281.537C258.669 281.362 256.863 283.261 256.194 285.267C255.204 288.258 256.129 291.248 256.866 294.134" stroke="#0D114F" stroke-width="1.60556" stroke-miterlimit="1.5" stroke-linecap="round" stroke-linejoin="round"/>
<path d="M263.495 279.355C266.021 275.027 270.459 271.685 275.035 269.926C276.872 269.187 278.857 268.624 280.831 269.046C283.45 269.644 285.818 273.092 283.223 275.274C282.576 275.837 280.317 276.646 280.574 274.957C280.889 272.846 283.744 272.107 285.434 271.931C288.975 271.544 295.261 273.198 294.116 278.124C293.969 278.757 293.712 279.355 293.376 279.918C292.923 280.692 292.334 281.326 291.676 281.889C290.438 282.945 289.002 283.683 287.549 284.352" stroke="#0D114F" stroke-width="1.60556" stroke-miterlimit="1.5" stroke-linecap="round" stroke-linejoin="round"/>
<path d="M289.685 283.825C290.1 284.247 290.467 284.669 290.731 285.196C292.06 287.835 289.493 289.947 287.197 290.404C284.616 290.932 281.901 290.088 279.512 289.173C278.316 288.715 277.123 288.187 276.04 287.483" stroke="#0D114F" stroke-width="1.60556" stroke-miterlimit="1.5" stroke-linecap="round" stroke-linejoin="round"/>
<path d="M280.533 289.806C278.37 291.46 275.834 291.354 273.335 290.686C272.139 290.334 270.987 289.946 269.945 289.243" stroke="#0D114F" stroke-width="1.60556" stroke-miterlimit="1.5" stroke-linecap="round" stroke-linejoin="round"/>
<path d="M266.207 289.067C266.087 290.932 265.662 292.762 264.448 294.204C263.828 294.908 263.012 295.471 262.279 296.069" stroke="#0D114F" stroke-width="1.60556" stroke-miterlimit="1.5" stroke-linecap="round" stroke-linejoin="round"/>
<path d="M262.053 296.456C262.892 300.115 263.598 303.775 264.479 307.434" stroke="#0D114F" stroke-width="1.60556" stroke-miterlimit="1.5" stroke-linecap="round" stroke-linejoin="round"/>
<path d="M264.499 307.997C268.835 307.293 273.332 307.152 277.716 307.223C280.41 307.258 283.206 307.258 285.876 307.68" stroke="#0D114F" stroke-width="1.60556" stroke-miterlimit="1.5" stroke-linecap="round" stroke-linejoin="round"/>
<path d="M259.725 296.455C260.729 302.015 261.833 307.539 263.05 313.099C263.19 313.732 263.591 314.26 264.15 314.541C268.811 316.934 273.12 318.271 277.137 318.693C277.449 318.693 277.761 318.658 278.059 318.552C281.236 317.426 284.252 315.597 287.125 313.204C287.577 312.817 287.855 312.254 287.885 311.656C288.18 305.675 288.132 299.27 287.838 292.585" stroke="#0D114F" stroke-width="1.60556" stroke-miterlimit="1.5" stroke-linecap="round" stroke-linejoin="round"/>
<path d="M265.327 315.246C265.42 317.322 265.516 319.397 265.643 321.438" stroke="#0D114F" stroke-width="1.60556" stroke-miterlimit="1.5" stroke-linecap="round" stroke-linejoin="round"/>
<path d="M284.227 315.738C284.227 317.638 284.227 319.503 284.227 321.403" stroke="#0D114F" stroke-width="1.60556" stroke-miterlimit="1.5" stroke-linecap="round" stroke-linejoin="round"/>
<path d="M259.628 296.222C257.664 295.344 254.953 295.062 253.465 296.849C253.232 297.131 253.064 297.444 252.93 297.789C252.759 298.197 252.667 298.698 252.649 299.168C252.625 299.858 252.749 300.548 252.982 301.206C254.158 304.529 257.859 306.16 261.523 305.815" stroke="#0D114F" stroke-width="1.60556" stroke-miterlimit="1.5" stroke-linecap="round" stroke-linejoin="round"/>
<path d="M255.127 299.482C256.203 300.01 257.29 300.537 258.335 301.136" stroke="#0D114F" stroke-width="1.60556" stroke-miterlimit="1.5" stroke-linecap="round" stroke-linejoin="round"/>
<path d="M288.032 294.732C290.925 293.431 293.599 295.823 293.321 298.884C293.098 301.382 291.021 303.739 288.951 304.901" stroke="#0D114F" stroke-width="1.60556" stroke-miterlimit="1.5" stroke-linecap="round" stroke-linejoin="round"/>
<path d="M290.64 298.286C289.849 298.884 289.053 299.517 288.296 300.186" stroke="#0D114F" stroke-width="1.60556" stroke-miterlimit="1.5" stroke-linecap="round" stroke-linejoin="round"/>
<path d="M271.138 309.932C272.417 311.058 273.791 311.832 275.491 312.078" stroke="#0D114F" stroke-width="1.60556" stroke-miterlimit="1.5" stroke-linecap="round" stroke-linejoin="round"/>
<path d="M278.301 296.526C277.122 298.25 277.04 300.361 277.952 302.226C278.133 302.613 278.356 302.965 278.603 303.317C278.723 303.458 278.952 303.669 279.028 303.845C279.083 303.985 278.716 304.338 278.63 304.443C278.113 304.901 277.407 305.006 276.752 305.112" stroke="#0D114F" stroke-width="1.60556" stroke-miterlimit="1.5" stroke-linecap="round" stroke-linejoin="round"/>
<path d="M267.729 295.964C269.178 294.873 271.101 294.627 272.764 295.26" stroke="#0D114F" stroke-width="1.60556" stroke-miterlimit="1.5" stroke-linecap="round" stroke-linejoin="round"/>
<path d="M280.972 295.471C282.449 294.627 284.156 294.486 285.63 295.401" stroke="#0D114F" stroke-width="1.60556" stroke-miterlimit="1.5" stroke-linecap="round" stroke-linejoin="round"/>
<path d="M263.893 322.212C265.291 322.036 266.703 322.071 268.102 322.036C271.55 321.895 274.967 321.789 278.415 321.965C280.646 322.035 282.915 321.965 285.136 322.247" stroke="#0D114F" stroke-width="1.60556" stroke-miterlimit="1.5" stroke-linecap="round" stroke-linejoin="round"/>
<path d="M263.028 323.585C262.463 324.992 262.483 326.54 262.548 328.053" stroke="#0D114F" stroke-width="1.60556" stroke-miterlimit="1.5" stroke-linecap="round" stroke-linejoin="round"/>
<path d="M285.435 322.318C286.168 324.007 286.233 326.083 286.254 327.912" stroke="#0D114F" stroke-width="1.60556" stroke-miterlimit="1.5" stroke-linecap="round" stroke-linejoin="round"/>
<path d="M264.618 329.812C267.806 330.516 271.134 330.516 274.383 330.481C277.831 330.41 281.221 330.305 284.614 329.636" stroke="#0D114F" stroke-width="1.60556" stroke-miterlimit="1.5" stroke-linecap="round" stroke-linejoin="round"/>
<path d="M268.026 324.944C268.026 325.941 268.026 327.003 268.026 327.999" stroke="#0D114F" stroke-width="1.60556" stroke-miterlimit="1.5" stroke-linecap="round" stroke-linejoin="round"/>
<path d="M274.314 324.109C274.313 325.411 274.313 326.749 274.314 328.016" stroke="#0D114F" stroke-width="1.60556" stroke-miterlimit="1.5" stroke-linecap="round" stroke-linejoin="round"/>
<path d="M281.136 323.969C281.136 325.341 281.136 326.713 281.136 328.05" stroke="#0D114F" stroke-width="1.60556" stroke-miterlimit="1.5" stroke-linecap="round" stroke-linejoin="round"/>
<path d="M248.446 366.089C248.346 371.367 248.895 376.75 250.708 381.711" stroke="#0D114F" stroke-width="1.60556" stroke-miterlimit="1.5" stroke-linecap="round" stroke-linejoin="round"/>
<path d="M241.19 369.396C241.372 375.273 242.911 381.43 246.362 386.18" stroke="#0D114F" stroke-width="1.60556" stroke-miterlimit="1.5" stroke-linecap="round" stroke-linejoin="round"/>
<path d="M250.008 365.878C251.68 364.857 253.195 363.59 254.46 362.077C255.595 360.705 256.475 359.122 257.593 357.75C258.484 356.659 259.536 355.744 260.647 354.864" stroke="#0D114F" stroke-width="1.60556" stroke-miterlimit="1.5" stroke-linecap="round" stroke-linejoin="round"/>
<path d="M258.459 361.41C259.816 360.601 261.187 359.827 262.517 358.982C263.504 358.349 264.464 357.539 265.568 357.152C267.004 356.625 268.567 356.554 270.075 356.449C270.914 356.378 271.747 356.238 272.58 356.097C273.125 356.026 273.687 355.886 273.797 356.59C273.965 357.68 272.981 358.665 272.114 359.088C270.849 359.721 269.379 359.792 268.039 360.179C266.777 360.531 265.633 361.164 264.478 361.762" stroke="#0D114F" stroke-width="1.60556" stroke-miterlimit="1.5" stroke-linecap="round" stroke-linejoin="round"/>
<path d="M260.019 364.084C263.782 362.923 267.593 362.957 271.429 363.626C272.618 363.837 274.575 364.013 274.507 365.702C274.496 365.913 274.445 366.125 274.352 366.336C274.232 366.617 274.047 366.828 273.862 367.074" stroke="#0D114F" stroke-width="1.60556" stroke-miterlimit="1.5" stroke-linecap="round" stroke-linejoin="round"/>
<path d="M273.643 367.321C273.924 368.306 273.718 369.502 272.961 370.171" stroke="#0D114F" stroke-width="1.60556" stroke-miterlimit="1.5" stroke-linecap="round" stroke-linejoin="round"/>
<path d="M262.645 370.382C264.166 370.135 265.709 370.17 267.244 370.17C268.927 370.135 270.613 370.135 272.293 370.276" stroke="#0D114F" stroke-width="1.60556" stroke-miterlimit="1.5" stroke-linecap="round" stroke-linejoin="round"/>
<path d="M262.774 370.733C264.591 371.12 266.394 371.613 268.21 372C269.653 372.281 271.127 372.492 272.529 372.95" stroke="#0D114F" stroke-width="1.60556" stroke-miterlimit="1.5" stroke-linecap="round" stroke-linejoin="round"/>
<path d="M272.608 373.232C272.505 373.971 272.231 374.534 271.587 374.956" stroke="#0D114F" stroke-width="1.60556" stroke-miterlimit="1.5" stroke-linecap="round" stroke-linejoin="round"/>
<path d="M269.708 375.483C267.768 374.815 265.414 374.146 263.34 374.428C260.574 374.78 258.154 376.469 255.591 377.454C254.137 378.017 252.574 378.051 251.135 378.614" stroke="#0D114F" stroke-width="1.60556" stroke-miterlimit="1.5" stroke-linecap="round" stroke-linejoin="round"/>
<path d="M261.367 367.074C263.18 366.687 265.034 366.511 266.885 366.476C268.935 366.405 271.111 366.476 273.099 367.074" stroke="#0D114F" stroke-width="1.60556" stroke-miterlimit="1.5" stroke-linecap="round" stroke-linejoin="round"/>
<path d="M261.881 345.857C261.603 350.009 261.429 354.196 261.103 358.348" stroke="#0D114F" stroke-width="1.60556" stroke-miterlimit="1.5" stroke-linecap="round" stroke-linejoin="round"/>
<path d="M263.461 345.646C267.074 346.42 270.758 346.456 274.436 346.491C280.287 346.596 286.305 346.35 292.112 345.54C294.898 345.118 297.434 343.746 300.218 343.429C303.35 343.113 306.576 343.676 309.708 343.852C313.479 344.063 317.204 343.887 320.971 343.781" stroke="#0D114F" stroke-width="1.60556" stroke-miterlimit="1.5" stroke-linecap="round" stroke-linejoin="round"/>
<path d="M261.749 377.208C261.804 380.515 261.842 383.788 261.842 387.095C261.838 388.643 261.575 390.473 261.832 391.986C261.842 392.056 262.569 392.162 262.654 392.197C263.467 392.373 264.293 392.514 265.115 392.619C268.711 393.217 272.361 393.287 275.984 393.041C284.323 392.478 292.532 390.86 300.792 389.663C307.188 388.749 314.283 388.186 320.333 385.723" stroke="#0D114F" stroke-width="1.60556" stroke-miterlimit="1.5" stroke-linecap="round" stroke-linejoin="round"/>
<path d="M321.992 372.599C321.81 376.61 321.879 380.656 321.786 384.668" stroke="#0D114F" stroke-width="1.60556" stroke-miterlimit="1.5" stroke-linecap="round" stroke-linejoin="round"/>
<path d="M311.548 352.824C312.642 353.211 313.742 353.528 314.849 353.88C316.906 354.478 318.962 355.111 320.988 355.815C323.013 356.483 325.495 357.082 325.728 359.65C325.773 360.143 325.735 360.635 325.659 361.093" stroke="#0D114F" stroke-width="1.60556" stroke-miterlimit="1.5" stroke-linecap="round" stroke-linejoin="round"/>
<path d="M325.228 362.289C325.475 362.958 325.547 363.662 325.482 364.4C325.451 364.717 325.334 365.033 325.314 365.385C325.266 366.124 325.526 366.863 325.499 367.637C325.478 368.235 325.187 368.728 325.132 369.291C325.05 370.135 325.218 371.367 324.484 372" stroke="#0D114F" stroke-width="1.60556" stroke-miterlimit="1.5" stroke-linecap="round" stroke-linejoin="round"/>
<path d="M310.841 353.563C310.676 355.146 311.677 356.202 313.007 356.836C313.957 357.293 315.012 357.504 316.01 357.82C317.672 358.313 319.345 358.876 320.932 359.615" stroke="#0D114F" stroke-width="1.60556" stroke-miterlimit="1.5" stroke-linecap="round" stroke-linejoin="round"/>
<path d="M321.092 361.268C317.565 360.917 313.877 360.987 310.333 361.058" stroke="#0D114F" stroke-width="1.60556" stroke-miterlimit="1.5" stroke-linecap="round" stroke-linejoin="round"/>
<path d="M309.598 361.514C309.08 362.535 309.029 363.872 309.906 364.681" stroke="#0D114F" stroke-width="1.60556" stroke-miterlimit="1.5" stroke-linecap="round" stroke-linejoin="round"/>
<path d="M310.044 364.822C309.255 366.053 309.255 367.637 310.64 368.34" stroke="#0D114F" stroke-width="1.60556" stroke-miterlimit="1.5" stroke-linecap="round" stroke-linejoin="round"/>
<path d="M310.979 368.482C311.329 368.517 311.682 368.587 312.035 368.658" stroke="#0D114F" stroke-width="1.60556" stroke-miterlimit="1.5" stroke-linecap="round" stroke-linejoin="round"/>
<path d="M312.463 368.693C312.171 369.572 312.178 370.628 312.984 371.191" stroke="#0D114F" stroke-width="1.60556" stroke-miterlimit="1.5" stroke-linecap="round" stroke-linejoin="round"/>
<path d="M313.019 371.367C316.299 371.543 319.538 372.071 322.804 372.387" stroke="#0D114F" stroke-width="1.60556" stroke-miterlimit="1.5" stroke-linecap="round" stroke-linejoin="round"/>
<path d="M310.092 364.822C313.303 364.752 316.577 364.998 319.778 365.28" stroke="#0D114F" stroke-width="1.60556" stroke-miterlimit="1.5" stroke-linecap="round" stroke-linejoin="round"/>
<path d="M312.427 368.551C315.008 368.235 317.763 368.41 320.351 368.586" stroke="#0D114F" stroke-width="1.60556" stroke-miterlimit="1.5" stroke-linecap="round" stroke-linejoin="round"/>
<path d="M321.437 344.028C321.392 347.511 321.636 350.959 321.725 354.443" stroke="#0D114F" stroke-width="1.60556" stroke-miterlimit="1.5" stroke-linecap="round" stroke-linejoin="round"/>
<path d="M160.914 286.588C158.579 286.729 156.112 287.326 154.35 288.98C151.522 291.689 150.95 295.876 151.8 299.571C152.149 301.084 152.763 302.702 153.904 303.793" stroke="#0D114F" stroke-width="1.60556" stroke-miterlimit="1.5" stroke-linecap="round" stroke-linejoin="round"/>
<path d="M160.477 291.795C159.071 295.525 159.873 299.431 162.235 302.527" stroke="#0D114F" stroke-width="1.60556" stroke-miterlimit="1.5" stroke-linecap="round" stroke-linejoin="round"/>
<path d="M168.238 292.393C167.329 295.173 167.706 298.374 169.16 300.908" stroke="#0D114F" stroke-width="1.60556" stroke-miterlimit="1.5" stroke-linecap="round" stroke-linejoin="round"/>
<path d="M174.571 295.4C173.83 302.085 174.341 308.842 177.913 314.647C181.035 319.714 187.253 324.323 186.718 331.079" stroke="#0D114F" stroke-width="1.60556" stroke-miterlimit="1.5" stroke-linecap="round" stroke-linejoin="round"/>
<path d="M182.729 306.907C183.089 310.425 184.055 313.556 186.026 316.512C187.86 319.221 190.489 321.298 192.559 323.796C193.851 325.379 194.801 327.315 195.562 329.215" stroke="#0D114F" stroke-width="1.60556" stroke-miterlimit="1.5" stroke-linecap="round" stroke-linejoin="round"/>
<path d="M163.489 286.074C165.553 285.194 167.815 284.666 170.039 284.525C171.784 284.455 173.491 284.525 175.198 284.912C184.849 287.164 186.289 297.791 189.096 305.954C189.874 308.206 190.827 310.387 191.945 312.498C193.322 315.067 194.923 317.53 196.983 319.57C199.276 321.893 202.001 323.722 204.263 326.045" stroke="#0D114F" stroke-width="1.60556" stroke-miterlimit="1.5" stroke-linecap="round" stroke-linejoin="round"/>
<path d="M211.873 333.982C216.343 340.245 219.88 347.247 219.876 355.199C219.873 358.577 218.691 363.08 215.174 364.277" stroke="#0D114F" stroke-width="1.60556" stroke-miterlimit="1.5" stroke-linecap="round" stroke-linejoin="round"/>
<path d="M213.078 348.091C214.579 352.243 215.44 357.556 213.716 361.779" stroke="#0D114F" stroke-width="1.60556" stroke-miterlimit="1.5" stroke-linecap="round" stroke-linejoin="round"/>
<path d="M153.301 306.379C153.582 309.545 152.889 311.27 151.549 314.12C149.448 318.623 146 322.564 147.135 327.912C147.327 328.792 147.615 329.672 148.012 330.481" stroke="#0D114F" stroke-width="1.60556" stroke-miterlimit="1.5" stroke-linecap="round" stroke-linejoin="round"/>
<path d="M155.775 316.265C154.417 320.206 154.534 324.006 156.162 327.842" stroke="#0D114F" stroke-width="1.60556" stroke-miterlimit="1.5" stroke-linecap="round" stroke-linejoin="round"/>
<path d="M154.839 306.945C156.08 312.399 157.41 317.009 158.829 320.773C158.921 321.02 159.092 321.231 159.315 321.371C162.571 323.307 165.677 324.432 168.628 324.749C168.741 324.749 168.857 324.749 168.967 324.714C172.213 323.588 175.143 321.688 177.796 319.049" stroke="#0D114F" stroke-width="1.60556" stroke-miterlimit="1.5" stroke-linecap="round" stroke-linejoin="round"/>
<path d="M162.404 323.093L163.402 329.637C163.402 329.637 168.066 334.493 176.861 329.637" stroke="#0D114F" stroke-width="1.60556" stroke-miterlimit="1.5" stroke-linecap="round" stroke-linejoin="round"/>
<path d="M177.314 319.751L178.528 328.301" stroke="#0D114F" stroke-width="1.60556" stroke-miterlimit="1.5" stroke-linecap="round" stroke-linejoin="round"/>
<path d="M166.797 305.89C166.797 305.89 168.494 303.427 171.223 305.01" stroke="#0D114F" stroke-width="1.60556" stroke-miterlimit="1.5" stroke-linecap="round" stroke-linejoin="round"/>
<path d="M157.893 307.749C157.893 307.749 159.557 305.462 162.042 306.729" stroke="#0D114F" stroke-width="1.60556" stroke-miterlimit="1.5" stroke-linecap="round" stroke-linejoin="round"/>
<path d="M164.52 308.775C164.52 308.775 165.278 312.716 163.612 314.967C163.612 314.967 164.822 315.601 166.436 314.967" stroke="#0D114F" stroke-width="1.60556" stroke-miterlimit="1.5" stroke-linecap="round" stroke-linejoin="round"/>
<path d="M166.456 318.921C166.456 318.921 169.071 319.117 170.537 316.675" stroke="#0D114F" stroke-width="1.60556" stroke-miterlimit="1.5" stroke-linecap="round" stroke-linejoin="round"/>
<path d="M178.633 328.159C179.38 328.476 180.096 328.898 180.847 329.25C182.588 330.059 184.412 330.727 186.18 331.466" stroke="#0D114F" stroke-width="1.60556" stroke-miterlimit="1.5" stroke-linecap="round" stroke-linejoin="round"/>
<path d="M194.977 335.301C199.24 340.543 201.054 347.052 203.467 353.28" stroke="#0D114F" stroke-width="1.60556" stroke-miterlimit="1.5" stroke-linecap="round" stroke-linejoin="round"/>
<path d="M208.565 369.382C210.786 376.492 213.912 383.602 214.032 391.247C214.094 395.184 212.929 399.733 209.717 401.912" stroke="#0D114F" stroke-width="1.60556" stroke-miterlimit="1.5" stroke-linecap="round" stroke-linejoin="round"/>
<path d="M181.515 393.699C186.181 396.95 185.548 396.363 190.588 398.915C194.055 400.703 197.457 402.602 201.124 403.916" stroke="#0D114F" stroke-width="1.60556" stroke-miterlimit="1.5" stroke-linecap="round" stroke-linejoin="round"/>
<path d="M187.871 376.9C187.398 380.317 186.288 383.54 184.917 386.608C183.864 388.938 182.624 391.229 180.865 393.016" stroke="#0D114F" stroke-width="1.60556" stroke-miterlimit="1.5" stroke-linecap="round" stroke-linejoin="round"/>
<path d="M193.484 379.735C193.028 383.774 191.815 387.424 189.995 390.919C188.836 393.171 187.397 395.345 185.607 396.976" stroke="#0D114F" stroke-width="1.60556" stroke-miterlimit="1.5" stroke-linecap="round" stroke-linejoin="round"/>
<path d="M187.874 376.892C193.865 380.727 195.812 380.691 201.135 383.365" stroke="#0D114F" stroke-width="1.60556" stroke-miterlimit="1.5" stroke-linecap="round" stroke-linejoin="round"/>
<path d="M156.998 357.714C159.209 357.714 161.272 356.87 163.449 357.433C164.96 357.855 166.379 358.629 167.75 359.368C168.645 359.861 169.594 360.353 170.345 361.057C172.881 363.485 174.537 366.616 176.775 369.29C178.166 370.944 184.898 376.151 187.715 377.911" stroke="#0D114F" stroke-width="1.60556" stroke-miterlimit="1.5" stroke-linecap="round" stroke-linejoin="round"/>
<path d="M156.73 357.996C156.343 358.875 157.104 359.368 157.837 359.614C158.787 359.931 159.729 359.685 160.689 359.861C161.635 360.001 162.509 360.564 163.369 360.951" stroke="#0D114F" stroke-width="1.60556" stroke-miterlimit="1.5" stroke-linecap="round" stroke-linejoin="round"/>
<path d="M165.801 362.466C164.701 362.044 163.6 361.621 162.459 361.304C161.897 361.164 161.335 360.988 160.749 361.128C159.978 361.304 159.306 361.937 158.699 362.43C158.055 362.958 157.17 363.697 157.328 364.647" stroke="#0D114F" stroke-width="1.60556" stroke-miterlimit="1.5" stroke-linecap="round" stroke-linejoin="round"/>
<path d="M165.35 365.667C163.287 364.928 160.991 363.732 158.845 364.787C158.002 365.21 156.991 366.054 157.371 367.18" stroke="#0D114F" stroke-width="1.60556" stroke-miterlimit="1.5" stroke-linecap="round" stroke-linejoin="round"/>
<path d="M164.435 369.045C163.253 368.517 161.967 368.306 160.706 368.13C160.082 368.024 159.403 367.883 158.773 367.989C157.597 368.2 156.572 369.256 156.552 370.487" stroke="#0D114F" stroke-width="1.60556" stroke-miterlimit="1.5" stroke-linecap="round" stroke-linejoin="round"/>
<path d="M157.917 371.121C158.822 371.226 159.73 371.367 160.628 371.508C161.125 371.613 161.708 371.719 162.147 371.965C162.897 372.423 163.418 373.267 163.98 373.9C164.703 374.745 165.547 375.519 166.5 376.082C167.517 376.68 168.693 377.031 169.848 377.207C170.75 377.348 171.713 377.384 172.556 377.771C173.403 378.158 174.067 378.897 174.705 379.6C175.665 380.621 181.615 387.306 182.564 388.327" stroke="#0D114F" stroke-width="1.60556" stroke-miterlimit="1.5" stroke-linecap="round" stroke-linejoin="round"/>
<path d="M157.931 329.32C159.576 329.109 161.328 328.722 162.987 328.933" stroke="#0D114F" stroke-width="1.60556" stroke-miterlimit="1.5" stroke-linecap="round" stroke-linejoin="round"/>
<path d="M149.317 331.888C145.351 333.12 141.742 335.266 138.119 337.271C134.311 339.418 130.541 341.459 126.905 343.922C125.211 345.048 122.874 346.244 121.633 347.933C121.201 348.496 121.023 350.115 122.103 350.22C122.757 350.291 123.268 348.637 122.699 348.32C122.161 348.038 121.263 348.214 120.701 348.355C118.99 348.742 117.441 349.587 115.827 350.29C112.944 351.487 99.4982 355.111 96.6533 355.991" stroke="#0D114F" stroke-width="1.60556" stroke-miterlimit="1.5" stroke-linecap="round" stroke-linejoin="round"/>
<path d="M97.145 356.976C101.052 360.459 103.764 365.385 105.899 370.17" stroke="#0D114F" stroke-width="1.60556" stroke-miterlimit="1.5" stroke-linecap="round" stroke-linejoin="round"/>
<path d="M103.513 354.864C106.82 358.77 109.926 363.661 111.307 368.693" stroke="#0D114F" stroke-width="1.60556" stroke-miterlimit="1.5" stroke-linecap="round" stroke-linejoin="round"/>
<path d="M107.56 370.311C116.954 368.341 126.339 366.019 135.257 362.324C139.511 360.565 143.411 358.067 147.614 356.202" stroke="#0D114F" stroke-width="1.60556" stroke-miterlimit="1.5" stroke-linecap="round" stroke-linejoin="round"/>
<path d="M120.448 352.542C123.602 354.935 126.553 357.961 128.75 361.303" stroke="#0D114F" stroke-width="1.60556" stroke-miterlimit="1.5" stroke-linecap="round" stroke-linejoin="round"/>
<path d="M120.261 355.85C120.874 357.539 121.522 359.228 122.084 360.917" stroke="#0D114F" stroke-width="1.60556" stroke-miterlimit="1.5" stroke-linecap="round" stroke-linejoin="round"/>
<path d="M156.416 371.895C155.69 374.041 155.172 376.258 154.552 378.439" stroke="#0D114F" stroke-width="1.60556" stroke-miterlimit="1.5" stroke-linecap="round" stroke-linejoin="round"/>
<path d="M154.966 378.228C156.111 377.946 157.272 377.947 158.431 378.123C159.199 378.228 159.953 378.404 160.679 378.686C160.899 378.791 161.115 378.897 161.324 379.002C162.307 379.565 164.042 380.972 162.599 382.063C162.4 382.204 162.17 382.345 161.941 382.415C160.172 383.048 157.879 382.485 156.282 381.57C155.61 381.219 154.932 380.656 154.599 379.952" stroke="#0D114F" stroke-width="1.60556" stroke-miterlimit="1.5" stroke-linecap="round" stroke-linejoin="round"/>
<path d="M164.343 374.428C163.973 376.575 163.829 378.791 163.425 380.938" stroke="#0D114F" stroke-width="1.60556" stroke-miterlimit="1.5" stroke-linecap="round" stroke-linejoin="round"/>
<path d="M156.33 360.565C154.383 365.948 152.539 371.367 150.603 376.786" stroke="#0D114F" stroke-width="1.60556" stroke-miterlimit="1.5" stroke-linecap="round" stroke-linejoin="round"/>
<path d="M141.976 373.901C143.128 373.549 144.297 373.549 145.479 373.725C146.274 373.83 147.063 374.042 147.789 374.429C149.164 375.097 151.378 376.927 149.455 378.334C149.198 378.545 148.903 378.686 148.598 378.791C146.048 379.671 141.188 378.474 141.034 375.097" stroke="#0D114F" stroke-width="1.60556" stroke-miterlimit="1.5" stroke-linecap="round" stroke-linejoin="round"/>
<path d="M141.588 372.915C145.578 366.018 150.143 359.439 153.927 352.437" stroke="#0D114F" stroke-width="1.60556" stroke-miterlimit="1.5" stroke-linecap="round" stroke-linejoin="round"/>
<path d="M153.955 352.472C155.611 352.719 157.777 353.458 158.12 355.428" stroke="#0D114F" stroke-width="1.60556" stroke-miterlimit="1.5" stroke-linecap="round" stroke-linejoin="round"/>
<path d="M158.08 355.743C157.919 356.166 157.758 356.588 157.594 357.011" stroke="#0D114F" stroke-width="1.60556" stroke-miterlimit="1.5" stroke-linecap="round" stroke-linejoin="round"/>
<path d="M160.956 357.327C161.306 356.236 161.624 355.145 161.947 354.055" stroke="#0D114F" stroke-width="1.60556" stroke-miterlimit="1.5" stroke-linecap="round" stroke-linejoin="round"/>
<path d="M162.085 353.949C163.662 353.281 165.406 353.598 166.592 354.9" stroke="#0D114F" stroke-width="1.60556" stroke-miterlimit="1.5" stroke-linecap="round" stroke-linejoin="round"/>
<path d="M166.639 355.498C166.505 356.448 166.388 357.397 166.303 358.347" stroke="#0D114F" stroke-width="1.60556" stroke-miterlimit="1.5" stroke-linecap="round" stroke-linejoin="round"/>
<path d="M153.996 367.778C154.874 367.954 155.758 368.165 156.625 368.411" stroke="#0D114F" stroke-width="1.60556" stroke-miterlimit="1.5" stroke-linecap="round" stroke-linejoin="round"/>
<path d="M156.348 361.585C156.941 361.797 157.537 361.972 158.123 362.183" stroke="#0D114F" stroke-width="1.60556" stroke-miterlimit="1.5" stroke-linecap="round" stroke-linejoin="round"/>
<path d="M147.455 364.012C149.94 364.822 152.308 365.913 153.854 368.13" stroke="#0D114F" stroke-width="1.60556" stroke-miterlimit="1.5" stroke-linecap="round" stroke-linejoin="round"/>
<path d="M150.386 359.65C152.398 359.861 154.478 360.494 155.818 362.148" stroke="#0D114F" stroke-width="1.60556" stroke-miterlimit="1.5" stroke-linecap="round" stroke-linejoin="round"/>
<path d="M83.2285 361.726C87.9448 360.354 92.4931 358.313 97.2539 357.152" stroke="#0D114F" stroke-width="1.60556" stroke-miterlimit="1.5" stroke-linecap="round" stroke-linejoin="round"/>
<path d="M81.7957 362.043C79.9448 362.008 78.0392 361.551 76.1952 361.903C74.2004 362.254 72.4214 363.275 70.6494 364.225C68.2947 365.492 65.9708 366.829 63.7326 368.342C62.3102 369.257 60.8843 370.207 59.6059 371.333C59.2803 371.614 58.4955 372.142 58.4715 372.634C58.427 373.549 60.2366 373.444 60.7165 373.338C62.9718 372.881 65.0488 371.509 67.0813 370.453" stroke="#0D114F" stroke-width="1.60556" stroke-miterlimit="1.5" stroke-linecap="round" stroke-linejoin="round"/>
<path d="M67.3428 371.015C67.4696 372.176 68.0352 373.337 68.9983 374.006" stroke="#0D114F" stroke-width="1.60556" stroke-miterlimit="1.5" stroke-linecap="round" stroke-linejoin="round"/>
<path d="M74.9089 365.033C73.1094 366.405 71.0665 367.636 69.459 369.255" stroke="#0D114F" stroke-width="1.60556" stroke-miterlimit="1.5" stroke-linecap="round" stroke-linejoin="round"/>
<path d="M69.2617 370.663C69.4708 371.578 69.738 372.493 69.8751 373.443C69.9128 373.689 69.8409 374.358 70.0088 374.534C70.4201 374.991 71.1194 374.534 71.4141 374.182C72.1408 373.337 72.2265 372.071 72.2196 370.98" stroke="#0D114F" stroke-width="1.60556" stroke-miterlimit="1.5" stroke-linecap="round" stroke-linejoin="round"/>
<path d="M72.332 370.663C72.877 370.381 73.4151 370.029 73.9738 369.748C74.2377 369.642 74.5222 369.466 74.8238 369.431C75.8281 369.396 76.8838 370.029 77.8366 370.276C79.2659 370.663 80.5821 370.522 81.9222 369.889" stroke="#0D114F" stroke-width="1.60556" stroke-miterlimit="1.5" stroke-linecap="round" stroke-linejoin="round"/>
<path d="M69.584 375.096C70.0364 376.011 70.8281 376.539 71.7946 376.715" stroke="#0D114F" stroke-width="1.60556" stroke-miterlimit="1.5" stroke-linecap="round" stroke-linejoin="round"/>
<path d="M71.8701 376.715C72.7133 378.088 74.2043 378.686 75.5959 377.771" stroke="#0D114F" stroke-width="1.60556" stroke-miterlimit="1.5" stroke-linecap="round" stroke-linejoin="round"/>
<path d="M75.6606 377.841C76.1884 377.348 76.6991 376.821 77.1618 376.258C77.5457 375.8 78.0872 375.167 78.2072 374.568C78.3922 373.583 77.3264 373.056 76.5449 373.267C75.3899 373.548 74.4129 374.675 73.6006 375.484" stroke="#0D114F" stroke-width="1.60556" stroke-miterlimit="1.5" stroke-linecap="round" stroke-linejoin="round"/>
<path d="M76.064 373.161C75.9886 372.704 75.831 372.246 75.5088 371.93C74.8371 371.296 73.4488 371.262 72.7051 371.789" stroke="#0D114F" stroke-width="1.60556" stroke-miterlimit="1.5" stroke-linecap="round" stroke-linejoin="round"/>
<path d="M78.2363 377.243C81.8695 375.906 83.9739 372.492 87.2677 370.663C89.074 369.642 91.1066 369.185 93.0911 368.728C96.0731 368.024 99.151 367.531 102.188 367.179" stroke="#0D114F" stroke-width="1.60556" stroke-miterlimit="1.5" stroke-linecap="round" stroke-linejoin="round"/>
<path d="M2.24615 514.608C-1.69207 499.091 3.87759 481.851 16.5011 472.245C22.7015 467.53 30.9858 464.539 38.2967 468.48C47.0026 473.195 48.9324 485.334 46.3754 494.271C45.5666 497.121 44.1887 500.007 41.8203 501.836C40.9154 502.505 39.4656 503.244 38.571 502.188C36.4185 499.584 38.3241 495.01 39.7945 492.653C43.582 486.601 51.4756 483.047 58.2861 485.58C63.7187 487.621 65.9808 492.969 65.1137 498.599C64.9834 499.443 63.184 504.897 62.2722 504.862C61.8507 504.827 61.6279 503.42 61.6073 503.209C61.4188 501.273 62.5738 499.303 63.7015 497.86C66.8754 493.814 72.308 491.351 77.247 490.682C81.2024 490.154 85.48 490.893 86.9435 495.186C87.4919 496.769 87.4131 498.669 86.9161 500.288C86.8749 500.429 85.5998 502.716 85.5759 502.645C83.9718 496.699 92.1601 493.743 96.4514 494.025C104.304 494.552 107.491 501.132 106.837 508.557C106.583 511.442 104.941 515.524 103.385 517.987" stroke="#0D114F" stroke-width="1.60556" stroke-miterlimit="1.5" stroke-linecap="round" stroke-linejoin="round"/>
<path d="M5.14893 516.684C21.0869 518.338 36.9907 518.619 52.9869 518.971C68.349 519.323 88.0468 519.042 103.385 517.986" stroke="#0D114F" stroke-width="1.60556" stroke-miterlimit="1.5" stroke-linecap="round" stroke-linejoin="round"/>
<path d="M58.4458 287.448C65.3591 289.419 72.742 290.615 79.4188 287.131C83.2404 285.161 87.9876 277.878 81.6741 275.626C78.9389 274.641 76.0256 276.611 76.7385 279.672C77.3109 282.17 79.5833 284.07 81.6878 285.126C89.105 288.891 97.7801 286.85 105.657 286.533" stroke="#0D114F" stroke-width="1.60556" stroke-miterlimit="1.5" stroke-linecap="round" stroke-linejoin="round"/>
<path d="M341.365 491.105C349.468 492.336 358.109 492.653 365.495 488.36C367.051 487.48 368.833 486.214 369.454 484.384C370.475 481.358 368.693 477.312 365.241 477.241C361.889 477.171 360.062 480.795 360.439 483.856C360.84 487.129 363.281 489.978 366.006 491.527C374.057 496.136 384.953 494.166 393.638 493.005" stroke="#0D114F" stroke-width="1.60556" stroke-miterlimit="1.5" stroke-linecap="round" stroke-linejoin="round"/>
<path d="M456.282 368.623C455.864 351.382 456.666 329.848 440.992 319.644C436.683 316.829 431.748 315.175 426.603 315.879C418.473 316.97 411.923 323.655 410.329 331.854C409.582 335.689 409.911 341.882 414.219 343.465C419.501 345.365 422.774 338.714 421.098 334.246C418.302 326.822 408.917 325.626 402.37 327.631C394.545 329.989 386.638 339.7 392.352 347.968C394.34 350.818 398.583 349.411 399.035 346.068C400.228 337.131 383.553 337.096 378.628 339.313C375.063 340.896 372.191 344.731 372.304 348.848C372.342 350.22 372.702 351.98 373.877 352.824C374.337 353.176 376.472 353.387 376.386 352.226C376.201 349.692 370.776 348.848 369.171 348.813C363.386 348.672 355.52 351.1 352.034 359.123C349.103 365.878 352.034 368.623 352.034 368.623C352.034 368.623 369.052 371.086 375.756 371.649C401.637 373.795 427.062 369.327 452.816 368.623" stroke="#0D114F" stroke-width="1.60556" stroke-miterlimit="1.5" stroke-linecap="round" stroke-linejoin="round"/>
<path d="M171.939 217.463C170.455 222.213 170.4 227.527 170.547 232.488C170.626 235.232 170.647 237.625 173.107 239.138" stroke="#0D114F" stroke-width="1.60556" stroke-miterlimit="1.5" stroke-linecap="round" stroke-linejoin="round"/>
<path d="M175.914 239.947C183.431 241.988 191.119 243.044 198.786 244.275C205.703 245.401 212.482 247.16 219.444 248.04C231.34 249.553 243.354 249.94 255.282 251.137" stroke="#0D114F" stroke-width="1.60556" stroke-miterlimit="1.5" stroke-linecap="round" stroke-linejoin="round"/>
<path d="M259.78 251.523C264.164 252.051 268.657 251.981 273.065 252.016C281.678 252.087 290.134 251.734 298.658 250.362C303.422 249.623 308.543 249.131 313.054 247.266" stroke="#0D114F" stroke-width="1.60556" stroke-miterlimit="1.5" stroke-linecap="round" stroke-linejoin="round"/>
<path d="M314.374 246.281C315.717 242.446 316.629 238.54 316.742 234.458C316.79 232.734 316.78 230.764 316.207 229.146" stroke="#0D114F" stroke-width="1.60556" stroke-miterlimit="1.5" stroke-linecap="round" stroke-linejoin="round"/>
<path d="M174.9 217.182C184.035 220.173 193.683 220.525 203.167 221.405C212.284 222.249 221.347 223.621 230.488 224.29" stroke="#0D114F" stroke-width="1.60556" stroke-miterlimit="1.5" stroke-linecap="round" stroke-linejoin="round"/>
<path d="M236.435 225.134C243.132 225.802 249.813 226.822 256.524 227.315C275.591 228.758 294.741 228.969 313.849 228.863" stroke="#0D114F" stroke-width="1.60556" stroke-miterlimit="1.5" stroke-linecap="round" stroke-linejoin="round"/>
<path d="M185.378 219.926C183.164 225.732 182.396 232.769 183.229 238.962" stroke="#0D114F" stroke-width="1.60556" stroke-miterlimit="1.5" stroke-linecap="round" stroke-linejoin="round"/>
<path d="M178.309 218.625C177.456 220.56 176.771 222.566 176.4 224.642" stroke="#0D114F" stroke-width="1.60556" stroke-miterlimit="1.5" stroke-linecap="round" stroke-linejoin="round"/>
<path d="M175.877 227.351C174.862 231.081 175.03 235.127 175.716 238.927" stroke="#0D114F" stroke-width="1.60556" stroke-miterlimit="1.5" stroke-linecap="round" stroke-linejoin="round"/>
<path d="M209.477 222.25C207.064 228.829 206.482 236.5 207.818 243.396" stroke="#0D114F" stroke-width="1.60556" stroke-miterlimit="1.5" stroke-linecap="round" stroke-linejoin="round"/>
<path d="M222.002 223.867C220.422 227.949 219.723 232.382 219.541 236.745" stroke="#0D114F" stroke-width="1.60556" stroke-miterlimit="1.5" stroke-linecap="round" stroke-linejoin="round"/>
<path d="M219.517 239.209C219.249 242.059 219.404 244.909 219.815 247.759" stroke="#0D114F" stroke-width="1.60556" stroke-miterlimit="1.5" stroke-linecap="round" stroke-linejoin="round"/>
<path d="M263.811 228.512C265.919 235.338 265.905 243.15 264.373 250.081" stroke="#0D114F" stroke-width="1.60556" stroke-miterlimit="1.5" stroke-linecap="round" stroke-linejoin="round"/>
<path d="M275.999 228.512C276.726 232.488 276.931 236.394 276.887 240.405" stroke="#0D114F" stroke-width="1.60556" stroke-miterlimit="1.5" stroke-linecap="round" stroke-linejoin="round"/>
<path d="M276.822 243.783C276.51 246.422 276.301 249.131 275.684 251.735" stroke="#0D114F" stroke-width="1.60556" stroke-miterlimit="1.5" stroke-linecap="round" stroke-linejoin="round"/>
<path d="M301.249 229.04C303.035 233.543 303.696 238.399 303.676 243.255" stroke="#0D114F" stroke-width="1.60556" stroke-miterlimit="1.5" stroke-linecap="round" stroke-linejoin="round"/>
<path d="M303.665 245.472C303.645 246.809 303.593 248.146 303.456 249.483" stroke="#0D114F" stroke-width="1.60556" stroke-miterlimit="1.5" stroke-linecap="round" stroke-linejoin="round"/>
<path d="M310.655 229.005C312.77 234.248 313.075 240.053 312.643 245.612" stroke="#0D114F" stroke-width="1.60556" stroke-miterlimit="1.5" stroke-linecap="round" stroke-linejoin="round"/>
<path d="M37.0903 1C37.0903 1 37.7999 36.9245 56.9803 82.7014" stroke="#0D114F" stroke-width="1.60556" stroke-miterlimit="1.5" stroke-linecap="round" stroke-linejoin="round"/>
<path d="M60.4531 90.6533C74.8007 122.11 97.9536 157.365 135.303 188.434" stroke="#0D114F" stroke-width="1.60556" stroke-miterlimit="1.5" stroke-linecap="round" stroke-linejoin="round"/>
<path d="M140.625 192.728C150.078 200.223 160.395 207.471 171.651 214.297" stroke="#0D114F" stroke-width="1.60556" stroke-miterlimit="1.5" stroke-linecap="round" stroke-linejoin="round"/>
<path d="M440.338 127.106C427.941 145.122 411.519 164.861 390.334 182.911" stroke="#0D114F" stroke-width="1.60556" stroke-miterlimit="1.5" stroke-linecap="round" stroke-linejoin="round"/>
<path d="M382.837 189.068C364.253 203.776 342.299 217.041 316.545 226.893" stroke="#0D114F" stroke-width="1.60556" stroke-miterlimit="1.5" stroke-linecap="round" stroke-linejoin="round"/>
<path d="M129.651 2.51294C129.651 2.51294 130.957 66.6564 149.29 114.333" stroke="#0D114F" stroke-width="1.60556" stroke-miterlimit="1.5" stroke-linecap="round" stroke-linejoin="round"/>
<path d="M152.13 123.095C163.078 155.537 179.712 190.723 204.959 221.37" stroke="#0D114F" stroke-width="1.60556" stroke-miterlimit="1.5" stroke-linecap="round" stroke-linejoin="round"/>
<path d="M384.62 2.51294C384.62 2.51294 383.307 121.089 323.854 191.777" stroke="#0D114F" stroke-width="1.60556" stroke-miterlimit="1.5" stroke-linecap="round" stroke-linejoin="round"/>
<path d="M316.041 202.264C308.806 211.447 300.727 220.455 291.709 229.005" stroke="#0D114F" stroke-width="1.60556" stroke-miterlimit="1.5" stroke-linecap="round" stroke-linejoin="round"/>
<path d="M226.374 2.51294C223.382 17.7484 222.703 43.3636 222.282 51.2805" stroke="#0D114F" stroke-width="1.60556" stroke-miterlimit="1.5" stroke-linecap="round" stroke-linejoin="round"/>
<path d="M221.919 58.8809C220.651 88.0852 220.973 117.043 222.649 145.79" stroke="#0D114F" stroke-width="1.60556" stroke-miterlimit="1.5" stroke-linecap="round" stroke-linejoin="round"/>
<path d="M223.533 159.302C225.127 181.082 227.478 202.756 230.487 224.29" stroke="#0D114F" stroke-width="1.60556" stroke-miterlimit="1.5" stroke-linecap="round" stroke-linejoin="round"/>
<path d="M301.289 2.5127C302.441 24.2224 300.463 46.5299 295.603 78.6194" stroke="#0D114F" stroke-width="1.60556" stroke-miterlimit="1.5" stroke-linecap="round" stroke-linejoin="round"/>
<path d="M293.894 92.7651C287.464 142.131 276.582 187.345 263.811 227.914" stroke="#0D114F" stroke-width="1.60556" stroke-miterlimit="1.5" stroke-linecap="round" stroke-linejoin="round"/>
<path d="M72.5244 415.068C72.9631 415.596 73.4087 416.123 73.8474 416.651" stroke="#0D114F" stroke-width="1.60556" stroke-miterlimit="1.5" stroke-linecap="round" stroke-linejoin="round"/>
<path d="M354.688 267.217C355.589 266.583 356.49 265.915 357.364 265.246" stroke="#0D114F" stroke-width="1.60556" stroke-miterlimit="1.5" stroke-linecap="round" stroke-linejoin="round"/>
<path d="M231.128 264.015C231.265 264.402 231.412 264.789 231.553 265.176" stroke="#0D114F" stroke-width="1.60556" stroke-miterlimit="1.5" stroke-linecap="round" stroke-linejoin="round"/>
<path d="M346.589 422.245C347.058 423.055 347.504 423.935 347.936 424.779" stroke="#0D114F" stroke-width="1.60556" stroke-miterlimit="1.5" stroke-linecap="round" stroke-linejoin="round"/>
<path d="M104.327 203.601C104.721 204.34 105.119 205.043 105.513 205.747" stroke="#0D114F" stroke-width="1.60556" stroke-miterlimit="1.5" stroke-linecap="round" stroke-linejoin="round"/>
<path d="M132.858 384.808C144.358 391.388 157.639 396.807 171.833 400.994" stroke="#0D114F" stroke-width="1.60556" stroke-miterlimit="1.5" stroke-linecap="round" stroke-linejoin="round"/>
<path d="M178.302 402.788C215.425 412.57 257.673 414.224 290.145 407.01" stroke="#0D114F" stroke-width="1.60556" stroke-miterlimit="1.5" stroke-linecap="round" stroke-linejoin="round"/>
<path d="M298.53 404.899C310.218 401.557 320.288 396.912 327.921 390.93" stroke="#0D114F" stroke-width="1.60556" stroke-miterlimit="1.5" stroke-linecap="round" stroke-linejoin="round"/>
<path d="M132.858 407.681C137.695 410.426 142.846 412.994 148.248 415.351" stroke="#0D114F" stroke-width="1.60556" stroke-miterlimit="1.5" stroke-linecap="round" stroke-linejoin="round"/>
<path d="M152.343 417.076C160.381 420.348 168.912 423.163 177.738 425.52" stroke="#0D114F" stroke-width="1.60556" stroke-miterlimit="1.5" stroke-linecap="round" stroke-linejoin="round"/>
<path d="M197.714 430.094C210.701 432.381 225.586 433.859 238.542 434.246" stroke="#0D114F" stroke-width="1.60556" stroke-miterlimit="1.5" stroke-linecap="round" stroke-linejoin="round"/>
<path d="M244.215 434.352C253.431 434.387 262.449 433.965 271.056 433.015" stroke="#0D114F" stroke-width="1.60556" stroke-miterlimit="1.5" stroke-linecap="round" stroke-linejoin="round"/>
<path d="M298.285 427.139C310.73 423.761 319.905 420.066 327.922 413.803" stroke="#0D114F" stroke-width="1.60556" stroke-miterlimit="1.5" stroke-linecap="round" stroke-linejoin="round"/>
<path d="M131.415 386.039C130.777 392.689 130.568 399.515 131.946 406.095" stroke="#0D114F" stroke-width="1.60556" stroke-miterlimit="1.5" stroke-linecap="round" stroke-linejoin="round"/>
<path d="M132.598 384.702C135.055 382.943 138.099 382.345 141.005 381.922C143.775 381.5 146.565 381.113 149.365 381.043" stroke="#0D114F" stroke-width="1.60556" stroke-miterlimit="1.5" stroke-linecap="round" stroke-linejoin="round"/>
<path d="M211.311 372.88C214.814 372.845 218.382 373.161 221.868 373.513" stroke="#0D114F" stroke-width="1.60556" stroke-miterlimit="1.5" stroke-linecap="round" stroke-linejoin="round"/>
<path d="M329.099 413.168C329.013 406.412 329.222 399.409 328.427 392.689" stroke="#0D114F" stroke-width="1.60556" stroke-miterlimit="1.5" stroke-linecap="round" stroke-linejoin="round"/>
<path d="M321.443 387.517C323.006 387.904 325.947 388.713 327.342 389.522" stroke="#0D114F" stroke-width="1.60556" stroke-miterlimit="1.5" stroke-linecap="round" stroke-linejoin="round"/>
<path d="M137.338 458.909C139.754 479.845 143.391 503.067 147.264 521.821" stroke="#0D114F" stroke-width="1.60556" stroke-miterlimit="1.5" stroke-linecap="round" stroke-linejoin="round"/>
<path d="M148.249 525.868C158.549 533.891 169.277 540.295 180.444 545.045" stroke="#0D114F" stroke-width="1.60556" stroke-miterlimit="1.5" stroke-linecap="round" stroke-linejoin="round"/>
<path d="M267.152 550.287C276.897 547.789 286.895 544.376 297.157 539.942C298.271 539.485 299.104 538.5 299.416 537.303C301.362 529.738 303.2 521.997 304.927 514.081" stroke="#0D114F" stroke-width="1.60556" stroke-miterlimit="1.5" stroke-linecap="round" stroke-linejoin="round"/>
<path d="M305.844 509.577C309.23 493.673 312.123 477.382 314.563 460.317" stroke="#0D114F" stroke-width="1.60556" stroke-miterlimit="1.5" stroke-linecap="round" stroke-linejoin="round"/>
<path d="M138.457 413.097C141.014 421.436 142.912 430.162 144.729 438.712C145.271 441.246 145.535 443.849 145.517 446.453C145.507 447.79 145.517 449.268 144.907 450.5C143.091 454.194 138.635 455.742 135.043 456.833" stroke="#0D114F" stroke-width="1.60556" stroke-miterlimit="1.5" stroke-linecap="round" stroke-linejoin="round"/>
<path d="M132.948 457.291C131.158 457.467 129.332 457.502 127.542 457.326C126.476 457.185 125.39 457.009 124.406 456.552C116.972 453.139 120.424 443.357 122.154 437.375C122.549 436.038 122.991 434.702 123.419 433.365C123.947 431.711 124.509 430.057 125.075 428.439C125.815 426.292 126.552 424.146 127.327 421.999C128.245 419.466 129.349 417.003 130.045 414.399" stroke="#0D114F" stroke-width="1.60556" stroke-miterlimit="1.5" stroke-linecap="round" stroke-linejoin="round"/>
<path d="M130.739 412.568C130.51 411.337 130.194 410.106 129.454 409.086C128.768 408.171 127.799 407.502 126.935 406.763C126.184 406.129 124.721 404.898 125.091 403.737C125.481 402.47 127.548 402.611 128.518 402.329C130.119 401.872 130.894 400.641 131.274 399.058" stroke="#0D114F" stroke-width="1.60556" stroke-miterlimit="1.5" stroke-linecap="round" stroke-linejoin="round"/>
<path d="M133.341 415.138C132.426 418.868 131.596 422.598 130.917 426.363" stroke="#0D114F" stroke-width="1.60556" stroke-miterlimit="1.5" stroke-linecap="round" stroke-linejoin="round"/>
<path d="M135.942 416.193C136.46 420.064 137.108 423.864 137.574 427.699" stroke="#0D114F" stroke-width="1.60556" stroke-miterlimit="1.5" stroke-linecap="round" stroke-linejoin="round"/>
<path d="M142.405 440.687C142.439 441.461 142.477 442.2 142.504 442.939C142.61 445.613 143.025 449.483 140.78 451.383" stroke="#0D114F" stroke-width="1.60556" stroke-miterlimit="1.5" stroke-linecap="round" stroke-linejoin="round"/>
<path d="M138.28 452.403C137.334 452.614 136.395 452.72 135.435 452.79" stroke="#0D114F" stroke-width="1.60556" stroke-miterlimit="1.5" stroke-linecap="round" stroke-linejoin="round"/>
<path d="M182.272 426.116C180.775 431.851 178.32 436.883 175.534 442.055C173.258 446.278 170.451 450.887 170.989 455.954C172.048 465.841 185.539 466.896 192.764 463.73C194.786 462.85 197.192 461.337 198.361 459.366C200.082 456.446 199.197 452.787 198.31 449.761C196.455 443.392 194.32 437.587 193.525 430.972" stroke="#0D114F" stroke-width="1.60556" stroke-miterlimit="1.5" stroke-linecap="round" stroke-linejoin="round"/>
<path d="M193.525 429.248C195.16 428.157 196.942 427.207 198.474 425.976C199.112 425.448 199.815 424.744 199.856 423.865C199.9 422.915 199.071 421.894 198.8 421.014C198.632 420.451 198.913 419.114 198.533 418.833C197.333 417.953 195.856 419.396 194.639 418.798C193.549 418.235 193.227 416.405 191.921 416.264C190.965 416.194 189.947 416.792 189.285 417.461C188.716 418.059 188.322 418.762 187.428 418.692C184.816 418.481 183.825 414.54 181.011 415.631C177.635 416.898 178.883 421.542 180.48 423.794" stroke="#0D114F" stroke-width="1.60556" stroke-miterlimit="1.5" stroke-linecap="round" stroke-linejoin="round"/>
<path d="M186.178 427.981C185.417 430.585 184.588 433.118 183.82 435.722" stroke="#0D114F" stroke-width="1.60556" stroke-miterlimit="1.5" stroke-linecap="round" stroke-linejoin="round"/>
<path d="M189.68 430.021C189.858 433.083 190.17 436.108 190.372 439.134" stroke="#0D114F" stroke-width="1.60556" stroke-miterlimit="1.5" stroke-linecap="round" stroke-linejoin="round"/>
<path d="M195.266 449.161C196.452 452.433 196.812 456.163 194.66 459.083" stroke="#0D114F" stroke-width="1.60556" stroke-miterlimit="1.5" stroke-linecap="round" stroke-linejoin="round"/>
<path d="M192.305 461.194C191.376 461.616 190.362 461.968 189.351 462.074" stroke="#0D114F" stroke-width="1.60556" stroke-miterlimit="1.5" stroke-linecap="round" stroke-linejoin="round"/>
<path d="M279.796 430.409C276.79 438.642 272.423 446.77 270.867 455.496C270.319 458.592 269.688 462.393 270.874 465.419" stroke="#0D114F" stroke-width="1.60556" stroke-miterlimit="1.5" stroke-linecap="round" stroke-linejoin="round"/>
<path d="M273.021 467.354C279.054 470.31 284.672 470.451 290.91 468.058C294.786 466.58 297.864 463.906 298.149 459.403C298.437 454.934 295.958 450.641 294.577 446.56C292.767 441.176 291.873 435.546 290.159 430.127" stroke="#0D114F" stroke-width="1.60556" stroke-miterlimit="1.5" stroke-linecap="round" stroke-linejoin="round"/>
<path d="M279.007 429.6C278.15 428.72 277.307 427.805 276.57 426.82C276.097 426.186 275.648 425.553 275.274 424.849C275.031 424.392 274.829 423.935 274.675 423.442C274.185 421.894 274.733 420.698 276.457 420.733C278.534 420.768 280.337 422.035 282.472 421.648C283.854 421.401 285.081 420.487 286.222 419.712C286.956 419.22 287.768 418.587 288.693 418.763C290.428 419.15 290.561 421.683 292.234 422.316C293.272 422.703 294.465 422.316 295.511 422.175C296.09 422.07 296.803 421.964 297.307 422.386C298.283 423.125 298.119 424.568 297.536 425.518C296.535 427.172 294.263 428.65 292.47 429.248" stroke="#0D114F" stroke-width="1.60556" stroke-miterlimit="1.5" stroke-linecap="round" stroke-linejoin="round"/>
<path d="M283.74 430.162C282.31 433.188 281.522 436.496 280.477 439.663" stroke="#0D114F" stroke-width="1.60556" stroke-miterlimit="1.5" stroke-linecap="round" stroke-linejoin="round"/>
<path d="M285.989 431.289C286.908 434.666 287.799 438.044 288.755 441.422" stroke="#0D114F" stroke-width="1.60556" stroke-miterlimit="1.5" stroke-linecap="round" stroke-linejoin="round"/>
<path d="M293.638 452.628C294.46 455.402 295.46 458.615 294.991 461.572" stroke="#0D114F" stroke-width="1.60556" stroke-miterlimit="1.5" stroke-linecap="round" stroke-linejoin="round"/>
<path d="M293.644 463.709C292.569 464.292 291.445 464.739 290.261 465.052" stroke="#0D114F" stroke-width="1.60556" stroke-miterlimit="1.5" stroke-linecap="round" stroke-linejoin="round"/>
<path d="M314.708 423.161C313.992 425.518 313.313 427.876 312.625 430.233C312.097 432.028 311.565 433.822 311.11 435.616C309.392 442.513 306.098 452.189 312.676 457.502C313.478 458.171 314.376 458.699 315.325 459.086C316.953 459.754 318.729 459.93 320.453 460.07" stroke="#0D114F" stroke-width="1.60556" stroke-miterlimit="1.5" stroke-linecap="round" stroke-linejoin="round"/>
<path d="M323.205 460.035C324.925 459.754 326.636 459.437 328.195 458.593C332.599 456.235 332.623 450.641 331.958 446.278C330.57 437.129 325.497 428.262 326.529 418.833" stroke="#0D114F" stroke-width="1.60556" stroke-miterlimit="1.5" stroke-linecap="round" stroke-linejoin="round"/>
<path d="M327.48 417.073C327.998 416.123 328.505 415.208 328.909 414.223C329.163 413.59 329.403 412.957 329.575 412.288C329.695 411.831 329.784 411.373 329.808 410.916C329.825 410.599 329.811 410.283 329.763 409.966C329.609 408.981 328.927 408.734 328.015 409.121C326.891 409.614 326.174 411.092 324.927 411.267C323.528 411.479 322.106 409.649 320.745 410.353C319.809 410.845 319.241 411.936 318.788 412.851C318.545 413.379 318.343 414.047 317.832 414.328C316.036 415.278 312.961 413.097 311.642 415.173C310.445 417.038 312.307 419.185 313.393 420.522" stroke="#0D114F" stroke-width="1.60556" stroke-miterlimit="1.5" stroke-linecap="round" stroke-linejoin="round"/>
<path d="M319.685 421.682C318.547 425.377 318.149 429.247 317.344 433.047" stroke="#0D114F" stroke-width="1.60556" stroke-miterlimit="1.5" stroke-linecap="round" stroke-linejoin="round"/>
<path d="M322.061 422.598C322.462 425.061 322.928 427.524 323.264 430.022" stroke="#0D114F" stroke-width="1.60556" stroke-miterlimit="1.5" stroke-linecap="round" stroke-linejoin="round"/>
<path d="M329.451 450.037C329.006 452.676 327.957 455.456 325.616 456.933" stroke="#0D114F" stroke-width="1.60556" stroke-miterlimit="1.5" stroke-linecap="round" stroke-linejoin="round"/>
<path d="M329.193 444.478C329.334 445.322 329.481 446.202 329.546 447.081" stroke="#0D114F" stroke-width="1.60556" stroke-miterlimit="1.5" stroke-linecap="round" stroke-linejoin="round"/>
<path d="M141.269 418.586C142.482 420.381 143.877 422.246 145.488 423.723C147.627 425.623 150.338 427.066 152.943 428.192C158.92 430.796 165.124 431.851 171.582 430.831C174.653 430.373 177.926 429.776 180.613 428.087" stroke="#0D114F" stroke-width="1.60556" stroke-miterlimit="1.5" stroke-linecap="round" stroke-linejoin="round"/>
<path d="M140.601 412.324C142.297 415.103 144.33 417.883 146.815 419.959C152.576 424.779 160.761 427.172 168.007 427.384C172.319 427.524 176.802 426.574 180.6 424.217" stroke="#0D114F" stroke-width="1.60556" stroke-miterlimit="1.5" stroke-linecap="round" stroke-linejoin="round"/>
<path d="M195.215 432.379C203.091 439.064 212.394 441.281 222.285 442.794C241.054 445.679 261.222 444.095 277.479 433.328" stroke="#0D114F" stroke-width="1.60556" stroke-miterlimit="1.5" stroke-linecap="round" stroke-linejoin="round"/>
<path d="M196.26 429.036C211.876 440.753 234.888 441.492 253.198 438.959C259.522 438.079 265.314 436.073 270.98 433.294C272.621 432.484 276.745 429.986 278.373 429.036" stroke="#0D114F" stroke-width="1.60556" stroke-miterlimit="1.5" stroke-linecap="round" stroke-linejoin="round"/>
<path d="M290.609 430.233C297.626 435.441 308.868 433.54 313.57 425.94" stroke="#0D114F" stroke-width="1.60556" stroke-miterlimit="1.5" stroke-linecap="round" stroke-linejoin="round"/>
<path d="M293.684 428.967C299.699 430.48 306.136 429.811 310.818 425.272C311.637 424.498 312.292 423.548 312.909 422.598" stroke="#0D114F" stroke-width="1.60556" stroke-miterlimit="1.5" stroke-linecap="round" stroke-linejoin="round"/>
<path d="M137.54 389.382C136.557 395.153 136.234 401.064 137.859 406.729" stroke="#0D114F" stroke-width="1.60556" stroke-miterlimit="1.5" stroke-linecap="round" stroke-linejoin="round"/>
<path d="M209.151 409.719C207.382 416.475 206.652 423.512 207.564 430.479" stroke="#0D114F" stroke-width="1.60556" stroke-miterlimit="1.5" stroke-linecap="round" stroke-linejoin="round"/>
<path d="M197.024 407.045C196.098 409.966 195.481 413.133 195.577 416.194" stroke="#0D114F" stroke-width="1.60556" stroke-miterlimit="1.5" stroke-linecap="round" stroke-linejoin="round"/>
<path d="M262.256 412.957C263.027 416.933 263.613 420.944 263.432 425.025" stroke="#0D114F" stroke-width="1.60556" stroke-miterlimit="1.5" stroke-linecap="round" stroke-linejoin="round"/>
<path d="M263.296 427.875C263.042 429.881 262.792 431.992 262.168 433.892" stroke="#0D114F" stroke-width="1.60556" stroke-miterlimit="1.5" stroke-linecap="round" stroke-linejoin="round"/>
<path d="M275.543 410.001C276.441 412.921 276.863 415.947 276.606 418.973" stroke="#0D114F" stroke-width="1.60556" stroke-miterlimit="1.5" stroke-linecap="round" stroke-linejoin="round"/>
<path d="M321.863 395.716C323.114 399.973 323.951 404.336 324.067 408.769" stroke="#0D114F" stroke-width="1.60556" stroke-miterlimit="1.5" stroke-linecap="round" stroke-linejoin="round"/>
<path d="M161.207 436.145C162.115 447.932 163.154 459.227 164.312 470.135" stroke="#0D114F" stroke-width="1.60556" stroke-miterlimit="1.5" stroke-linecap="round" stroke-linejoin="round"/>
<path d="M164.807 474.709C166.781 492.618 169.074 509.402 171.634 525.271" stroke="#0D114F" stroke-width="1.60556" stroke-miterlimit="1.5" stroke-linecap="round" stroke-linejoin="round"/>
<path d="M208.168 444.8C207.681 464.152 207.53 482.448 207.63 499.971" stroke="#0D114F" stroke-width="1.60556" stroke-miterlimit="1.5" stroke-linecap="round" stroke-linejoin="round"/>
<path d="M207.678 506.516C207.77 516.262 207.938 531.322 208.168 540.646" stroke="#0D114F" stroke-width="1.60556" stroke-miterlimit="1.5" stroke-linecap="round" stroke-linejoin="round"/>
<path d="M254.509 444.8C254.211 450.746 253.864 456.692 253.474 462.639" stroke="#0D114F" stroke-width="1.60556" stroke-miterlimit="1.5" stroke-linecap="round" stroke-linejoin="round"/>
<path d="M253.163 467.108C251.569 489.803 248.087 520.591 245.263 543.215" stroke="#0D114F" stroke-width="1.60556" stroke-miterlimit="1.5" stroke-linecap="round" stroke-linejoin="round"/>
<path d="M287.774 473.089C286.777 480.337 285.721 487.48 284.617 494.588" stroke="#0D114F" stroke-width="1.60556" stroke-miterlimit="1.5" stroke-linecap="round" stroke-linejoin="round"/>
<path d="M283.77 499.971C281.874 511.828 279.859 523.51 277.782 535.087" stroke="#0D114F" stroke-width="1.60556" stroke-miterlimit="1.5" stroke-linecap="round" stroke-linejoin="round"/>
<path d="M174.418 241.953L170.436 281.185" stroke="#0D114F" stroke-width="1.60556" stroke-miterlimit="1.5" stroke-linecap="round" stroke-linejoin="round"/>
<path d="M174.487 283.14L178.413 243.489" stroke="#0D114F" stroke-width="1.60556" stroke-miterlimit="1.5" stroke-linecap="round" stroke-linejoin="round"/>
<path d="M210.711 249.658L208.822 283.121" stroke="#0D114F" stroke-width="1.60556" stroke-miterlimit="1.5" stroke-linecap="round" stroke-linejoin="round"/>
<path d="M215.144 247.894L211.312 315.785" stroke="#0D114F" stroke-width="1.60556" stroke-miterlimit="1.5" stroke-linecap="round" stroke-linejoin="round"/>
<path d="M210.722 321.792L206.019 405.089" stroke="#0D114F" stroke-width="1.60556" stroke-miterlimit="1.5" stroke-linecap="round" stroke-linejoin="round"/>
<path d="M208.83 288.304L203.695 363.344" stroke="#0D114F" stroke-width="1.60556" stroke-miterlimit="1.5" stroke-linecap="round" stroke-linejoin="round"/>
<path d="M203.764 367.989L201.409 407.538" stroke="#0D114F" stroke-width="1.60556" stroke-miterlimit="1.5" stroke-linecap="round" stroke-linejoin="round"/>
<path d="M271.628 252.509L271.628 269.046" stroke="#0D114F" stroke-width="1.60556" stroke-miterlimit="1.5" stroke-linecap="round" stroke-linejoin="round"/>
<path d="M267.467 274.536L267.467 255.253" stroke="#0D114F" stroke-width="1.60556" stroke-miterlimit="1.5" stroke-linecap="round" stroke-linejoin="round"/>
<path d="M307.462 252.509L312.124 310.566" stroke="#0D114F" stroke-width="1.60556" stroke-miterlimit="1.5" stroke-linecap="round" stroke-linejoin="round"/>
<path d="M312.543 315.703L314.662 341.6" stroke="#0D114F" stroke-width="1.60556" stroke-miterlimit="1.5" stroke-linecap="round" stroke-linejoin="round"/>
<path d="M311.171 248.111L314.517 289.067" stroke="#0D114F" stroke-width="1.60556" stroke-miterlimit="1.5" stroke-linecap="round" stroke-linejoin="round"/>
<path d="M314.977 294.696L318.99 343.851" stroke="#0D114F" stroke-width="1.60556" stroke-miterlimit="1.5" stroke-linecap="round" stroke-linejoin="round"/>
<path d="M225.135 378.017C232.682 374.111 240.144 369.959 247.928 366.582" stroke="#0D114F" stroke-width="1.60556" stroke-miterlimit="1.5" stroke-linecap="round" stroke-linejoin="round"/>
<path d="M251.03 382.803C248.836 384.668 245.775 386.99 243.65 388.96" stroke="#0D114F" stroke-width="1.60556" stroke-miterlimit="1.5" stroke-linecap="round" stroke-linejoin="round"/>
<path d="M247.385 345.646C249.037 351.276 249.986 357.046 250.096 362.887" stroke="#0D114F" stroke-width="1.60556" stroke-miterlimit="1.5" stroke-linecap="round" stroke-linejoin="round"/>
<path d="M165.878 335.021C169.823 336.358 174.416 335.407 178.032 333.507C179.674 332.628 181.323 331.361 182.365 329.743" stroke="#0D114F" stroke-width="1.60556" stroke-miterlimit="1.5" stroke-linecap="round" stroke-linejoin="round"/>
<path d="M161.037 331.396C161.644 332.381 162.473 333.296 163.385 334" stroke="#0D114F" stroke-width="1.60556" stroke-miterlimit="1.5" stroke-linecap="round" stroke-linejoin="round"/>
<path d="M300.643 343.819C295.498 351.075 290.999 358.862 286.216 366.331C281.87 373.127 277.674 380.064 273.267 386.825C271.96 388.807 270.346 390.613 269.063 392.63" stroke="#0D114F" stroke-width="1.60556" stroke-miterlimit="1.5" stroke-linecap="round" stroke-linejoin="round"/>
<path d="M287.112 365.32C290.66 368.37 295.208 370.449 299.173 372.841C306.187 377.104 313.118 381.47 320.122 385.733" stroke="#0D114F" stroke-width="1.60556" stroke-miterlimit="1.5" stroke-linecap="round" stroke-linejoin="round"/>
<path d="M299.301 372.944C295.384 378.918 293.388 384.714 289.916 390.94" stroke="#0D114F" stroke-width="1.60556" stroke-miterlimit="1.5" stroke-linecap="round" stroke-linejoin="round"/>
<path d="M276.199 346.49C281.654 349.268 287.02 352.13 292.378 355.115" stroke="#0D114F" stroke-width="1.60556" stroke-miterlimit="1.5" stroke-linecap="round" stroke-linejoin="round"/>
<path fill-rule="evenodd" clip-rule="evenodd" d="M293.329 363.348C292.833 362.8 292.751 361.961 293.128 361.283C294.162 359.411 295.121 357.346 296.288 355.636C297.47 353.893 298.821 352.247 300.428 350.892C301.113 350.343 301.977 349.665 302.917 349.859C303.647 350.02 304.162 350.763 304.429 351.408C305.074 353.022 304.473 354.732 304.675 356.41C305.005 359.153 306.523 361.67 305.913 364.574C305.63 365.93 304.439 366.736 303.222 367.156C300.821 367.963 298.076 367.285 296.058 365.801C295.128 365.123 294.153 364.284 293.329 363.348Z" stroke="#0D114F" stroke-width="1.60556" stroke-miterlimit="1.5" stroke-linecap="round" stroke-linejoin="round"/>
<path fill-rule="evenodd" clip-rule="evenodd" d="M286.566 371.32C286.931 370.577 287.808 370.255 288.566 370.578C290.279 371.288 292.064 372.062 293.02 373.708C294.46 376.225 292.715 379.323 291.53 381.517C290.93 382.647 290.09 384.002 288.811 384.357C287.333 384.809 286.466 382.486 285.073 382.389C283.674 382.324 282.467 383.389 281.405 384.196C280.77 384.648 279.965 385.293 279.735 384.099C279.415 382.421 280.763 380.517 281.625 379.226C283.319 376.677 285.171 374.095 286.566 371.32Z" stroke="#0D114F" stroke-width="1.60556" stroke-miterlimit="1.5" stroke-linecap="round" stroke-linejoin="round"/>
<path fill-rule="evenodd" clip-rule="evenodd" d="M279.286 352.021C279.761 351.989 280.239 352.118 280.616 352.408C281.861 353.409 283.656 353.925 285.026 354.57C286.06 355.054 287.117 355.668 287.324 356.926C287.466 357.765 287.217 358.669 286.922 359.444C286.243 361.283 285.014 363.123 283.357 364.123C282.43 364.672 280.958 365.252 279.978 364.478C278.61 363.413 280.43 361.445 279.987 360.089C279.481 358.54 277.658 358.088 276.916 356.701C275.831 354.668 277.265 352.28 279.286 352.021Z" stroke="#0D114F" stroke-width="1.60556" stroke-miterlimit="1.5" stroke-linecap="round" stroke-linejoin="round"/>
<path d="M295.012 390.52C296.206 387.842 296.716 384.906 297.806 382.195C298.256 381.065 298.844 379.581 299.831 378.839C301.104 377.871 302.113 379.678 302.927 380.42C303.207 380.678 303.512 380.904 303.848 381.065C305.169 381.743 306.75 381.581 308.149 381.969C310.459 382.646 312.443 385.067 313.005 387.455" stroke="#0D114F" stroke-width="1.60556" stroke-miterlimit="1.5" stroke-linecap="round" stroke-linejoin="round"/>
<path d="M259.67 300.86C260.279 300.86 260.773 300.353 260.773 299.728C260.773 299.103 260.279 298.596 259.67 298.596C259.061 298.596 258.567 299.103 258.567 299.728C258.567 300.353 259.061 300.86 259.67 300.86Z" fill="white"/>
<path d="M271.84 300.86C272.449 300.86 272.943 300.353 272.943 299.728C272.943 299.103 272.449 298.596 271.84 298.596C271.231 298.596 270.737 299.103 270.737 299.728C270.737 300.353 271.231 300.86 271.84 300.86Z" fill="white"/>
<path d="M148.561 311.899C149.133 311.899 149.597 311.423 149.597 310.836C149.597 310.249 149.133 309.773 148.561 309.773C147.989 309.773 147.526 310.249 147.526 310.836C147.526 311.423 147.989 311.899 148.561 311.899Z" fill="white"/>
<path d="M157.131 310.159C157.702 310.159 158.166 309.683 158.166 309.096C158.166 308.509 157.702 308.033 157.131 308.033C156.559 308.033 156.095 308.509 156.095 309.096C156.095 309.683 156.559 310.159 157.131 310.159Z" fill="white"/>
<path fill-rule="evenodd" clip-rule="evenodd" d="M264.439 318.686L253.801 321.784V315.556C253.801 315.556 257.319 316.943 259.758 317.459C262.201 318.008 264.439 318.686 264.439 318.686Z" fill="white"/>
<path fill-rule="evenodd" clip-rule="evenodd" d="M164.64 320.654C164.64 320.654 160.77 326.786 157.013 327.367C153.646 327.915 151.022 325.365 151.022 325.365L150.789 323.042C150.789 323.042 155.19 324.785 156.561 324.72C157.931 324.656 164.64 320.654 164.64 320.654Z" fill="white"/>
</svg>
